# xmcd CD database file
# Copyright (C) 1993-1998 Ti Kan
#
# Track frame offsets:
#	150
#	25497
#	34082
#	43777
#	47897
#	61145
#	69995
#	79395
#	84227
#	88587
#	106660
#	113367
#	116482
#	126500
#	148980
#	151665
#	163717
#	177090
#	185317
#	189025
#	191400
#	200097
#	206160
#	211005
#	216537
#	220872
#	232375
#	241957
#	249945
#	259545
#	267997
#	277557
#	285127
#	302475
#	316837
#
# Disc length: 4244 seconds
#
# Revision: 2
# Processed by: cddbd v1.4b41PL1 Copyright (c) Steve Scherf et al.
# Submitted via: xmcd 2.2 PL0
#
DISCID=e7109223
DTITLE=The Best of the K102 Morning Show - Volume 3
DYEAR=1900
DGENRE=
TTITLE0=Introducing John, Pam, Gino and Disney - "Big Butt"
TTITLE1=Yuksendanus: I
TTITLE2=Disney Dayton Sound Byte Year in Review: Act I
TTITLE3=Professor Curious: Anaconda "Spin-Offs"
TTITLE4="Hoop-Shootin' Boogie"
TTITLE5=How to Recommend an Idiot
TTITLE6=O.J. on "Lifestyles of the Flat Broke and Innocent"
TTITLE7=Date Perparation
TTITLE8=Rob Becker's Theory on TV - Disney's Revamped "Charlie in the Bo
TTITLE8=x"
TTITLE9=Pam's Birthday Song - "Please Take Her She Nags Non-Stop"
TTITLE10=Yuksendanus: II
TTITLE11=Professor Curious: Fowl Talk
TTITLE12=Jaques Cousteau: Le Tub
TTITLE13=Gino's Mystery Birthday Retrospective
TTITLE14=The Best Dish that Moms Make
TTITLE15=Disney Dayton's Sound Byte Year In Review: Act II
TTITLE16="Doe, A Beer" - "Pour More Beer For Me"
TTITLE17=Working With Raymond Babbit
TTITLE18=Prom Theme Songs
TTITLE19="Billy the Parrot Sings the Spice Girls"
TTITLE20="Where the Snow Don't Blow"
TTITLE21=The Nip-Tuals of Travis Titt
TTITLE22=Dial O-L-E-L-N-A
TTITLE23=The Great Gum-Off
TTITLE24=The Worst Song Of All Time
TTITLE25=Disney Dayton's Sound Byte Year In Review: Act III
TTITLE26="Summer's Goin"
TTITLE27="Fernando Carerra: Crime-Fighting Housekeeper"
TTITLE28=Yuksendanus: The Final Chapter
TTITLE29=Star Wars Returns!
TTITLE30=Embarrassing Things Dad Did
TTITLE31=Go to The Operat Day (See #31)
TTITLE32="The Best of Pam's Partyline" (That cound be found on short noti
TTITLE32=ce)
TTITLE33=Disney Dayton's Sound Byte Year In Review: Epilogue
TTITLE34=(Did We Miss Something?)
EXTD=All proceeds from the sales of this CD go to St. Jude\nChildren's
EXTD=Research Hospital. St. Jude has been a leader\nin the fight to c
EXTD=ure childhood cancer. Protocols develeped\nat St. Jude are used a
EXTD=ll over the country in the fight \nagainst this terrible disease,
EXTD=including hospitals in\nMinnesota. Thank you for your help.\n\n\n
EXTT0=
EXTT1=
EXTT2=
EXTT3=
EXTT4=
EXTT5=
EXTT6=
EXTT7=
EXTT8=
EXTT9=
EXTT10=
EXTT11=
EXTT12=
EXTT13=
EXTT14=
EXTT15=
EXTT16=
EXTT17=
EXTT18=
EXTT19=
EXTT20=
EXTT21=
EXTT22=
EXTT23=
EXTT24=
EXTT25=
EXTT26=
EXTT27=
EXTT28=
EXTT29=
EXTT30=
EXTT31=
EXTT32=
EXTT33=
EXTT34=
PLAYORDER=
